<svg width="14" height="13" viewBox="0 0 14 13" fill="none" xmlns="http://www.w3.org/2000/svg">
<path d="M13.0854 0.0925809C12.468 -0.239889 11.7793 0.401304 11.3756 0.781269C10.4495 1.68369 9.66578 2.72859 8.78707 3.67851C7.81341 4.72341 6.91099 5.76832 5.91358 6.78951C5.34363 7.35946 4.72619 7.97691 4.34622 8.68935C3.4913 7.85813 2.75512 6.95571 1.8052 6.21956C1.11651 5.69711 -0.0233826 5.31715 0.000365221 6.57579C0.0478609 8.21443 1.49648 9.97177 2.56513 11.0879C3.01634 11.5628 3.61004 12.0615 4.29873 12.0853C5.1299 12.1328 5.98482 11.1354 6.48353 10.5892C7.36224 9.63926 8.07468 8.57056 8.88206 7.59695C9.92697 6.31456 10.9956 5.05588 12.0168 3.74975C12.658 2.94232 14.6765 0.947468 13.0854 0.0925809ZM1.04523 6.48079C1.02149 6.48079 0.997737 6.48079 0.950242 6.5045C0.85525 6.48079 0.784007 6.457 0.689015 6.40951C0.760259 6.36202 0.878998 6.38576 1.04523 6.48079Z" fill="black" fill-opacity="0.7"/>
</svg>
