<svg width="28" height="28" viewBox="0 0 28 28" fill="none" xmlns="http://www.w3.org/2000/svg">
<path d="M2.96998 13.328H1.99672M19.5153 13.328H18.5421M4.91649 20.1408H7.83626M13.6758 20.1408H16.5956M22.7076 9.74639C23.071 8.9029 22.9412 7.76095 22.2664 6.76174C21.6046 5.76253 20.5924 5.20453 19.6711 5.21751M26.7434 11.0311C27.2884 9.0716 26.8991 6.6709 25.5106 4.59462C24.1221 2.51834 22.0458 1.24662 20.0214 1.00006M20.4756 24.8254C20.5794 25.9673 19.6711 26.9536 18.5032 26.9536H16.6734C15.6223 26.9536 15.4796 26.4994 15.2849 25.9544L15.0903 25.3704C14.8178 24.5788 14.6361 24.0338 13.2346 24.0338H8.25152C6.85003 24.0338 6.6424 24.6437 6.39584 25.3704L6.20119 25.9544C6.01952 26.5124 5.87677 26.9536 4.81268 26.9536H2.98295C1.81505 26.9536 0.893697 25.9673 1.01049 24.8254L1.55551 18.895C1.69826 17.4286 1.97077 16.2348 4.52719 16.2348H16.9459C19.5024 16.2348 19.7749 17.4286 19.9176 18.895L20.4756 24.8254Z" stroke="black" stroke-width="2" stroke-linecap="round" stroke-linejoin="round"/>
</svg>
