<svg width="14" height="13" viewBox="0 0 14 13" fill="none" xmlns="http://www.w3.org/2000/svg">
<path d="M13.0864 0.0925809C12.469 -0.239889 11.7803 0.401304 11.3766 0.781269C10.4504 1.68369 9.66676 2.72859 8.78805 3.67851C7.81439 4.72341 6.91197 5.76832 5.91456 6.78951C5.34461 7.35946 4.72716 7.97691 4.3472 8.68935C3.49228 7.85813 2.75609 6.95571 1.80618 6.21956C1.11749 5.69711 -0.0224061 5.31715 0.00134178 6.57579C0.0488375 8.21443 1.49746 9.97177 2.56611 11.0879C3.01732 11.5628 3.61102 12.0615 4.2997 12.0853C5.13088 12.1328 5.9858 11.1354 6.48451 10.5892C7.36322 9.63926 8.07565 8.57056 8.88304 7.59695C9.92795 6.31456 10.9966 5.05588 12.0178 3.74975C12.659 2.94232 14.6775 0.947468 13.0864 0.0925809ZM1.04621 6.48079C1.02246 6.48079 0.998714 6.48079 0.951218 6.5045C0.856227 6.48079 0.784983 6.457 0.689992 6.40951C0.761235 6.36202 0.879974 6.38576 1.04621 6.48079Z" fill="black"/>
</svg>
