<svg width="43" height="29" viewBox="0 0 43 29" fill="none" xmlns="http://www.w3.org/2000/svg">
<ellipse cx="14" cy="14.5" rx="14" ry="14.5" fill="#3663F5"/>
<ellipse cx="29" cy="14.5" rx="14" ry="14.5" fill="#D4D4D4"/>
<path d="M28 14.5004C28 19.8225 25.3909 24.4748 21.4994 27C17.6091 24.4732 15 19.8225 15 14.5004C15 9.1783 17.6091 4.52477 21.4994 2C25.3909 4.52477 28 9.1783 28 14.5004Z" fill="#4FB84A"/>
<path d="M28 14.5004C28 19.8225 25.3909 24.4748 21.4994 27C17.6091 24.4732 15 19.8225 15 14.5004C15 9.1783 17.6091 4.52477 21.4994 2C25.3909 4.52477 28 9.1783 28 14.5004Z" fill="#3D61D9"/>
</svg>
